HIERARCHY
ROOT newVegas:Hips
{
	OFFSET 0.000000 96.479958 0.000000
	CHANNELS 6 Xposition Yposition Zposition Xrotation Yrotation Zrotation
	JOINT newVegas:Pelvis
	{
		OFFSET 0.000000 0.000000 0.000000
		CHANNELS 3 Xrotation Yrotation Zrotation
		JOINT newVegas:LeftUpLeg
		{
			OFFSET 18.735201 -5.666702 -4.541200
			CHANNELS 3 Xrotation Yrotation Zrotation
			JOINT newVegas:LeftLeg
			{
				OFFSET -0.021200 -31.938179 0.493100
				CHANNELS 3 Xrotation Yrotation Zrotation
				JOINT newVegas:LeftFoot
				{
					OFFSET 0.021200 -31.938179 -4.336299
					CHANNELS 3 Xrotation Yrotation Zrotation
					JOINT newVegas:LeftToeBase
					{
						OFFSET 0.943001 -26.722000 15.023500
						CHANNELS 3 Xrotation Yrotation Zrotation
						End Site
						{
							OFFSET 0.000000 30.670183 0.000000
						}
					}
				}
				JOINT newVegas:Left_PantLeg
				{
					OFFSET 0.663870 -9.044666 -1.108900
					CHANNELS 3 Xrotation Yrotation Zrotation
					End Site
					{
						OFFSET 1.415995 20.635357 0.000000
					}
				}
			}
		}
		JOINT newVegas:RightUpLeg
		{
			OFFSET -18.735201 -5.666702 -4.541200
			CHANNELS 3 Xrotation Yrotation Zrotation
			JOINT newVegas:RightLeg
			{
				OFFSET 0.018946 -31.938133 0.493100
				CHANNELS 3 Xrotation Yrotation Zrotation
				JOINT newVegas:RightFoot
				{
					OFFSET -0.018946 -31.938126 -4.336299
					CHANNELS 3 Xrotation Yrotation Zrotation
					JOINT newVegas:RightToeBase
					{
						OFFSET -0.943001 -26.722004 15.023500
						CHANNELS 3 Xrotation Yrotation Zrotation
						End Site
						{
							OFFSET 0.000000 30.670187 0.000000
						}
					}
				}
				JOINT newVegas:Right_PantLeg
				{
					OFFSET -0.661674 -9.044716 -1.108900
					CHANNELS 3 Xrotation Yrotation Zrotation
					End Site
					{
						OFFSET -1.415958 20.635269 0.000000
					}
				}
			}
		}
	}
	JOINT newVegas:Spine
	{
		OFFSET 0.000000 10.199997 -0.299500
		CHANNELS 3 Xrotation Yrotation Zrotation
		JOINT newVegas:Spine1
		{
			OFFSET 0.000000 11.900002 -1.516600
			CHANNELS 3 Xrotation Yrotation Zrotation
			JOINT newVegas:Spine2
			{
				OFFSET 0.000000 13.600006 -2.842500
				CHANNELS 3 Xrotation Yrotation Zrotation
				JOINT newVegas:Neck
				{
					OFFSET 0.000000 9.624100 -2.890100
					CHANNELS 3 Xrotation Yrotation Zrotation
					JOINT newVegas:Head
					{
						OFFSET 0.000000 14.068802 -1.351900
						CHANNELS 3 Xrotation Yrotation Zrotation
						JOINT newVegas:Hair_Back
						{
							OFFSET 0.000000 3.231903 -17.524799
							CHANNELS 3 Xrotation Yrotation Zrotation
							End Site
							{
								OFFSET 0.000000 19.849884 0.000000
							}
						}
						JOINT newVegas:Hair_Front
						{
							OFFSET 0.000000 31.260406 4.573800
							CHANNELS 3 Xrotation Yrotation Zrotation
							JOINT newVegas:Hair_Front1
							{
								OFFSET 0.000000 2.284103 11.993300
								CHANNELS 3 Xrotation Yrotation Zrotation
								JOINT newVegas:Hair_Front2
								{
									OFFSET 0.000000 2.284103 11.993300
									CHANNELS 3 Xrotation Yrotation Zrotation
									End Site
									{
										OFFSET 0.000000 12.208862 0.000000
									}
								}
							}
						}
						JOINT newVegas:Jowel
						{
							OFFSET 0.000000 -7.458206 6.864100
							CHANNELS 3 Xrotation Yrotation Zrotation
							End Site
							{
								OFFSET 0.000000 19.849884 0.000000
							}
						}
					}
				}
				JOINT newVegas:LeftShoulder
				{
					OFFSET 15.263000 10.923401 -0.547700
					CHANNELS 3 Xrotation Yrotation Zrotation
					JOINT newVegas:LeftArm
					{
						OFFSET 25.438599 -2.830597 -13.032500
						CHANNELS 3 Xrotation Yrotation Zrotation
						JOINT newVegas:LeftForeArm
						{
							OFFSET 29.960503 0.000000 0.000000
							CHANNELS 3 Xrotation Yrotation Zrotation
							JOINT newVegas:LeftHand
							{
								OFFSET 27.849251 0.000000 0.000000
								CHANNELS 3 Xrotation Yrotation Zrotation
								JOINT newVegas:LeftHandThumb1
								{
									OFFSET 4.487587 -3.305161 6.305391
									CHANNELS 3 Xrotation Yrotation Zrotation
									JOINT newVegas:LeftHandThumb2
									{
										OFFSET 5.480453 -3.164139 3.164143
										CHANNELS 3 Xrotation Yrotation Zrotation
										JOINT newVegas:LeftHandThumb3
										{
											OFFSET 5.159721 -2.978973 2.978967
											CHANNELS 3 Xrotation Yrotation Zrotation
											End Site
											{
												OFFSET 2.494507 5.926697 1.738678
											}
										}
									}
								}
								JOINT newVegas:LeftHandIndex1
								{
									OFFSET 18.578728 -0.527832 5.208049
									CHANNELS 3 Xrotation Yrotation Zrotation
									JOINT newVegas:LeftHandIndex2
									{
										OFFSET 3.192009 0.000000 0.000000
										CHANNELS 3 Xrotation Yrotation Zrotation
										JOINT newVegas:LeftHandIndex3
										{
											OFFSET 3.835129 0.000000 0.000000
											CHANNELS 3 Xrotation Yrotation Zrotation
											End Site
											{
												OFFSET -0.034599 3.816971 0.371180
											}
										}
									}
								}
								JOINT newVegas:LeftHandMiddle1
								{
									OFFSET 18.476105 0.000000 0.000000
									CHANNELS 3 Xrotation Yrotation Zrotation
									JOINT newVegas:LeftHandMiddle2
									{
										OFFSET 3.324875 0.000000 0.000000
										CHANNELS 3 Xrotation Yrotation Zrotation
										JOINT newVegas:LeftHandMiddle3
										{
											OFFSET 4.596550 0.000000 0.000000
											CHANNELS 3 Xrotation Yrotation Zrotation
											End Site
											{
												OFFSET 0.057701 4.578827 0.399218
											}
										}
									}
								}
								JOINT newVegas:LeftHandRing1
								{
									OFFSET 17.732719 0.121887 -4.201567
									CHANNELS 3 Xrotation Yrotation Zrotation
									JOINT newVegas:LeftHandRing2
									{
										OFFSET 2.733170 0.000000 0.000000
										CHANNELS 3 Xrotation Yrotation Zrotation
										JOINT newVegas:LeftHandRing3
										{
											OFFSET 3.178268 0.000000 0.000000
											CHANNELS 3 Xrotation Yrotation Zrotation
											End Site
											{
												OFFSET 0.119102 3.170624 0.185394
											}
										}
									}
								}
								JOINT newVegas:LeftHandPinky1
								{
									OFFSET 15.989624 -0.606689 -7.535461
									CHANNELS 3 Xrotation Yrotation Zrotation
									JOINT newVegas:LeftHandPinky2
									{
										OFFSET 2.538986 0.000000 0.000000
										CHANNELS 3 Xrotation Yrotation Zrotation
										JOINT newVegas:LeftHandPinky3
										{
											OFFSET 2.593102 0.000000 0.000000
											CHANNELS 3 Xrotation Yrotation Zrotation
											End Site
											{
												OFFSET -0.150902 2.584198 0.152708
											}
										}
									}
								}
							}
							JOINT newVegas:Left_Sleeve
							{
								OFFSET 0.267448 -0.649796 0.577675
								CHANNELS 3 Xrotation Yrotation Zrotation
								End Site
								{
									OFFSET 0.000000 15.991241 0.000000
								}
							}
							JOINT newVegas:Left_CapeC
							{
								OFFSET 15.715958 -8.608795 -6.935905
								CHANNELS 3 Xrotation Yrotation Zrotation
								JOINT newVegas:Left_CapeC1
								{
									OFFSET 0.000000 -8.688499 0.000000
									CHANNELS 3 Xrotation Yrotation Zrotation
									End Site
									{
										OFFSET 0.000000 8.688499 0.000000
									}
								}
							}
						}
						JOINT newVegas:Left_CapeB
						{
							OFFSET 26.118385 -8.608795 -7.079235
							CHANNELS 3 Xrotation Yrotation Zrotation
							JOINT newVegas:Left_CapeB1
							{
								OFFSET 0.000000 -8.688499 0.000000
								CHANNELS 3 Xrotation Yrotation Zrotation
								End Site
								{
									OFFSET 0.000000 8.688499 0.000000
								}
							}
						}
						JOINT newVegas:Left_CapeA
						{
							OFFSET 5.115639 -8.608795 -10.395809
							CHANNELS 3 Xrotation Yrotation Zrotation
							JOINT newVegas:Left_CapeA1
							{
								OFFSET 0.000000 -8.688499 0.000000
								CHANNELS 3 Xrotation Yrotation Zrotation
								End Site
								{
									OFFSET 0.000000 8.688499 0.000000
								}
							}
						}
					}
				}
				JOINT newVegas:RightShoulder
				{
					OFFSET -15.263000 10.923401 -0.547700
					CHANNELS 3 Xrotation Yrotation Zrotation
					JOINT newVegas:RightArm
					{
						OFFSET -25.438599 -2.830597 -13.032500
						CHANNELS 3 Xrotation Yrotation Zrotation
						JOINT newVegas:RightForeArm
						{
							OFFSET -29.960503 0.000000 0.000000
							CHANNELS 3 Xrotation Yrotation Zrotation
							JOINT newVegas:RightHand
							{
								OFFSET -27.849251 0.000000 0.000000
								CHANNELS 3 Xrotation Yrotation Zrotation
								JOINT newVegas:RightHandThumb1
								{
									OFFSET -4.487587 -3.305161 6.305391
									CHANNELS 3 Xrotation Yrotation Zrotation
									JOINT newVegas:RightHandThumb2
									{
										OFFSET -5.480453 -3.164139 3.164143
										CHANNELS 3 Xrotation Yrotation Zrotation
										JOINT newVegas:RightHandThumb3
										{
											OFFSET -5.159721 -2.978973 2.978967
											CHANNELS 3 Xrotation Yrotation Zrotation
											End Site
											{
												OFFSET -2.494507 5.926697 1.738678
											}
										}
									}
								}
								JOINT newVegas:RightHandIndex1
								{
									OFFSET -18.578728 -0.527832 5.208049
									CHANNELS 3 Xrotation Yrotation Zrotation
									JOINT newVegas:RightHandIndex2
									{
										OFFSET -3.192009 0.000000 0.000000
										CHANNELS 3 Xrotation Yrotation Zrotation
										JOINT newVegas:RightHandIndex3
										{
											OFFSET -3.835129 0.000000 0.000000
											CHANNELS 3 Xrotation Yrotation Zrotation
											End Site
											{
												OFFSET 0.034599 3.816971 0.371180
											}
										}
									}
								}
								JOINT newVegas:RightHandMiddle1
								{
									OFFSET -18.476105 0.000000 0.000000
									CHANNELS 3 Xrotation Yrotation Zrotation
									JOINT newVegas:RightHandMiddle2
									{
										OFFSET -3.324875 0.000000 0.000000
										CHANNELS 3 Xrotation Yrotation Zrotation
										JOINT newVegas:RightHandMiddle3
										{
											OFFSET -4.596550 0.000000 0.000000
											CHANNELS 3 Xrotation Yrotation Zrotation
											End Site
											{
												OFFSET -0.057701 4.578827 0.399218
											}
										}
									}
								}
								JOINT newVegas:RightHandRing1
								{
									OFFSET -17.732719 0.121887 -4.201567
									CHANNELS 3 Xrotation Yrotation Zrotation
									JOINT newVegas:RightHandRing2
									{
										OFFSET -2.733170 0.000000 0.000000
										CHANNELS 3 Xrotation Yrotation Zrotation
										JOINT newVegas:RightHandRing3
										{
											OFFSET -3.178268 0.000000 0.000000
											CHANNELS 3 Xrotation Yrotation Zrotation
											End Site
											{
												OFFSET -0.119102 3.170624 0.185394
											}
										}
									}
								}
								JOINT newVegas:RightHandPinky1
								{
									OFFSET -15.989624 -0.606689 -7.535461
									CHANNELS 3 Xrotation Yrotation Zrotation
									JOINT newVegas:RightHandPinky2
									{
										OFFSET -2.538986 0.000000 0.000000
										CHANNELS 3 Xrotation Yrotation Zrotation
										JOINT newVegas:RightHandPinky3
										{
											OFFSET -2.593102 0.000000 0.000000
											CHANNELS 3 Xrotation Yrotation Zrotation
											End Site
											{
												OFFSET 0.150902 2.584198 0.152708
											}
										}
									}
								}
							}
							JOINT newVegas:Right_CapeC
							{
								OFFSET -15.715958 -8.608795 -6.935905
								CHANNELS 3 Xrotation Yrotation Zrotation
								JOINT newVegas:Right_CapeC1
								{
									OFFSET 0.000000 -8.688499 0.000000
									CHANNELS 3 Xrotation Yrotation Zrotation
									End Site
									{
										OFFSET 0.000000 8.688499 0.000000
									}
								}
							}
							JOINT newVegas:Right_Sleeve
							{
								OFFSET -0.267448 -0.649994 0.577675
								CHANNELS 3 Xrotation Yrotation Zrotation
								End Site
								{
									OFFSET 0.000000 15.991302 0.000000
								}
							}
						}
						JOINT newVegas:Right_CapeA
						{
							OFFSET -5.115540 -8.608795 -10.395824
							CHANNELS 3 Xrotation Yrotation Zrotation
							JOINT newVegas:Right_CapeA1
							{
								OFFSET 0.000000 -8.688499 0.000000
								CHANNELS 3 Xrotation Yrotation Zrotation
								End Site
								{
									OFFSET 0.000000 8.688499 0.000000
								}
							}
						}
						JOINT newVegas:Right_CapeB
						{
							OFFSET -26.118187 -8.608795 -7.079266
							CHANNELS 3 Xrotation Yrotation Zrotation
							JOINT newVegas:Right_CapeB1
							{
								OFFSET 0.000000 -8.688499 0.000000
								CHANNELS 3 Xrotation Yrotation Zrotation
								End Site
								{
									OFFSET 0.000000 8.688499 0.000000
								}
							}
						}
					}
				}
				JOINT newVegas:Left_Collar
				{
					OFFSET 18.625099 8.655502 8.828100
					CHANNELS 3 Xrotation Yrotation Zrotation
					JOINT newVegas:Left_Collar1
					{
						OFFSET 14.783401 10.540405 -1.259500
						CHANNELS 3 Xrotation Yrotation Zrotation
						End Site
						{
							OFFSET 0.000000 18.199875 0.000000
						}
					}
				}
				JOINT newVegas:Collar_Back
				{
					OFFSET 0.000000 15.630707 -20.132601
					CHANNELS 3 Xrotation Yrotation Zrotation
					End Site
					{
						OFFSET 0.000000 22.523010 0.000000
					}
				}
				JOINT newVegas:Left_Peck
				{
					OFFSET 17.239599 -5.132599 25.482599
					CHANNELS 3 Xrotation Yrotation Zrotation
					End Site
					{
						OFFSET 0.000000 22.523010 0.000000
					}
				}
				JOINT newVegas:Right_Peck
				{
					OFFSET -17.239599 -5.132202 25.482599
					CHANNELS 3 Xrotation Yrotation Zrotation
					End Site
					{
						OFFSET 0.000000 22.523010 0.000000
					}
				}
				JOINT newVegas:Right_Collar
				{
					OFFSET -18.625099 8.655792 8.828100
					CHANNELS 3 Xrotation Yrotation Zrotation
					JOINT newVegas:Right_Collar1
					{
						OFFSET -14.783401 10.539993 -1.259500
						CHANNELS 3 Xrotation Yrotation Zrotation
						End Site
						{
							OFFSET 0.000000 18.199631 0.000000
						}
					}
				}
			}
		}
		JOINT newVegas:Belly
		{
			OFFSET 0.000000 -6.540398 9.014299
			CHANNELS 3 Xrotation Yrotation Zrotation
			End Site
			{
				OFFSET 0.000000 11.566666 0.000000
			}
		}
	}
	JOINT newVegas:ElvisFacialAnim_Joint
	{
		OFFSET 1.000000 -95.330101 -8.825800
		CHANNELS 3 Xrotation Yrotation Zrotation
		End Site
		{
			OFFSET 0.000000 35.315800 0.000000
		}
	}
}
MOTION
Frames: 4
Frame Time: 0.016667
-33.996506 92.179146 -29.295723 4.589375 0.827218 -0.923269 -0.000000 -0.000000 0.000000 -51.040071 -1.471418 9.556809 52.215755 8.280915 0.896938 18.050230 12.499276 -4.571319 0.000001 -0.000001 -0.000001 -0.000000 -0.000000 0.000001 1.323578 -11.287367 -9.936642 23.225935 -7.871426 -0.427287 -11.871979 -4.986610 17.549519 -0.000000 -0.000001 0.000000 0.000002 0.000000 0.000000 1.776712 0.807957 -6.217073 2.669528 2.765866 -1.144402 2.711151 2.741216 -1.111867 -0.061221 0.608107 0.812626 -0.061228 0.608105 0.812627 0.000001 0.000000 -0.000000 -0.061221 0.608111 0.812629 -0.061225 0.608100 0.812629 -0.000000 0.000000 -0.000000 0.000001 0.000000 -0.000000 1.433977 -4.062824 -11.219143 -3.341565 24.380995 -39.671316 0.000034 -68.585857 0.000013 0.243791 -28.052567 -0.273026 -1.540041 3.690180 6.142338 3.946760 7.971410 0.752850 -0.000004 0.000001 -0.000003 0.000002 0.000000 -0.000006 0.000001 -0.000005 -0.000002 0.000001 0.000002 -0.000001 -0.000002 -0.001927 0.015979 0.000004 0.001917 -0.015985 0.000000 -0.000002 -0.000002 -0.000002 0.000003 -0.000005 0.000000 -0.000011 -0.000008 0.000003 -0.000001 -0.000001 -0.018085 4.054248 0.511059 -0.018091 -4.054246 -0.511061 0.000000 -0.000002 0.000001 -0.000001 -0.000002 0.000002 -0.000001 -0.000002 0.000002 -0.000002 -0.000003 0.000002 -0.000000 -0.000001 -0.000000 0.000000 -0.000001 -0.000004 -0.000000 -0.000001 -0.000000 0.000000 -0.000002 0.000001 0.748684 -2.655728 10.687282 -17.948791 -16.241862 40.821264 -0.000004 12.072948 -0.000005 3.899471 8.202185 6.283304 -1.849249 -3.581790 -6.586145 4.645035 -8.656805 -0.231327 0.000002 -0.000000 0.000003 0.000000 0.000003 0.000002 -0.000002 0.000002 0.000047 -0.000001 0.000001 -0.000003 0.000002 0.000002 -0.000004 -0.000001 0.000001 0.000011 -0.000000 -0.000001 0.000002 0.000001 0.000001 -0.000006 0.000002 0.000004 0.000149 0.000002 0.000002 0.000000 0.000001 0.000003 -0.000010 -0.000003 0.000009 0.000011 0.000000 -0.000004 -0.000001 -0.000001 0.000000 -0.000002 -0.000001 -0.000000 -0.000002 -0.000001 -0.000000 -0.000004 0.000000 -0.000001 0.000000 0.000000 -0.000001 -0.000002 0.000000 -0.000001 0.000000 0.000001 -0.000001 0.000000 0.000000 -0.000001 0.000001 0.000000 -0.000001 0.000001 0.000000 -0.000001 0.000001 0.000000 -0.000001 0.000001 0.000000 -0.000001 0.000001 0.000000 -0.000001 0.000001 0.000000 -0.000001 0.000001 -0.000000 0.000000 -0.000000 -0.000000 -0.000000 0.000000 
-33.645912 92.469635 -29.409454 4.766360 0.008011 -0.691539 -0.000000 0.000000 0.000000 -48.980332 -1.429073 10.577079 53.054345 8.545141 1.025002 18.133855 14.714230 -1.564537 0.000001 0.000001 -0.000002 -0.000000 0.000000 0.000001 0.042693 -10.917946 -11.542447 23.345515 -6.448476 -0.399624 -10.718149 -3.973820 18.540552 0.000000 -0.000000 -0.000000 -0.000002 0.000000 -0.000002 1.605938 1.220109 -6.490351 2.374022 3.259592 -1.400061 2.430396 3.238700 -1.364457 -0.082929 0.574228 0.890202 -0.082943 0.574227 0.890211 -0.000000 -0.000001 0.000001 -0.083009 0.574226 0.890203 -0.082852 0.574211 0.890204 0.000001 -0.000001 0.000000 -0.000000 -0.000001 0.000001 1.467534 -4.240642 -11.592414 5.654183 26.367479 -43.866825 -0.000042 -67.796758 -0.000044 0.073346 -29.850215 1.113549 -1.540042 3.690180 6.142337 3.946759 7.971412 0.752850 0.000001 -0.000003 -0.000005 -0.000003 0.000005 -0.000003 -0.000003 -0.000008 -0.000002 0.000001 -0.000004 -0.000002 0.000000 -0.001924 0.015976 -0.000002 0.001920 -0.015984 0.000002 -0.000000 0.000001 -0.000006 0.000004 -0.000006 0.000004 -0.000011 -0.000006 -0.000001 0.000001 -0.000000 -0.018087 4.054247 0.511057 -0.018087 -4.054247 -0.511061 0.000001 -0.000002 -0.000001 0.000001 -0.000003 0.000002 0.000001 -0.000003 0.000002 0.000000 -0.000003 0.000002 0.000001 -0.000003 -0.000001 0.000001 -0.000004 -0.000002 0.000001 -0.000003 -0.000001 0.000000 -0.000004 -0.000000 0.734775 -2.719271 10.596595 -18.801306 -15.324281 39.607061 0.000003 12.657099 -0.000010 3.908922 3.805297 10.426503 -1.849252 -3.581792 -6.586138 4.645036 -8.656805 -0.231329 0.000000 -0.000002 -0.000001 0.000001 0.000001 0.000000 -0.000003 0.000006 0.000051 -0.000000 0.000001 0.000002 0.000000 0.000001 0.000006 -0.000002 0.000000 0.000008 -0.000000 -0.000002 -0.000001 -0.000000 -0.000003 -0.000003 -0.000000 0.000004 0.000149 -0.000000 0.000002 0.000002 0.000002 -0.000006 -0.000007 -0.000003 0.000011 0.000011 0.000003 0.000003 -0.000000 -0.000001 0.000001 -0.000002 -0.000001 0.000001 -0.000002 -0.000001 0.000001 -0.000003 0.000001 0.000001 0.000001 0.000001 0.000000 0.000001 0.000001 0.000001 0.000001 0.000001 0.000000 0.000002 0.000002 0.000000 -0.000000 0.000002 0.000000 -0.000000 0.000002 0.000000 -0.000000 0.000002 0.000000 -0.000000 0.000002 0.000000 -0.000000 0.000002 0.000000 -0.000000 0.000002 0.000000 -0.000000 -0.000000 -0.000000 -0.000000 -0.000000 0.000000 0.000000 
-33.254913 92.688560 -29.495571 5.091403 -0.672963 -0.531457 0.000000 -0.000000 -0.000000 -46.583908 -1.407230 11.827151 52.960249 8.755384 1.160977 17.773614 17.057004 0.680026 -0.000000 0.000000 -0.000002 0.000000 0.000001 -0.000000 -1.175219 -10.535620 -13.006775 23.228898 -4.777440 -0.326042 -9.591441 -3.183181 19.514296 0.000000 -0.000000 0.000000 0.000001 0.000002 -0.000001 1.409312 1.594517 -6.668571 2.032629 3.712428 -1.607212 2.103382 3.696493 -1.570160 -0.103605 0.539609 0.943590 -0.103609 0.539606 0.943591 -0.000000 0.000000 0.000001 -0.103611 0.539608 0.943590 -0.103538 0.539613 0.943588 0.000000 0.000000 -0.000000 -0.000000 0.000000 0.000000 1.481603 -4.316642 -11.747586 12.772041 27.916448 -48.290889 -0.000037 -66.123963 -0.000036 0.079357 -30.831597 0.943949 -1.540040 3.690177 6.142331 3.946759 7.971412 0.752852 0.000003 0.000001 -0.000001 -0.000005 0.000001 -0.000008 0.000007 -0.000001 -0.000004 0.000002 -0.000005 -0.000000 -0.000001 -0.001928 0.015973 0.000006 0.001916 -0.015989 0.000002 -0.000003 0.000000 -0.000006 0.000004 -0.000006 0.000001 -0.000007 -0.000004 -0.000001 -0.000002 0.000001 -0.018083 4.054246 0.511059 -0.018083 -4.054246 -0.511057 -0.000001 -0.000002 0.000000 -0.000000 -0.000001 0.000002 -0.000000 -0.000001 0.000002 -0.000001 -0.000001 0.000002 0.000001 -0.000003 0.000003 0.000001 -0.000003 0.000003 0.000001 -0.000003 0.000003 0.000002 -0.000003 0.000004 0.715792 -2.807281 10.472896 -19.463266 -14.733594 38.616674 -0.000001 13.178796 0.000011 4.426772 0.064401 14.071437 -1.849251 -3.581789 -6.586133 4.645037 -8.656810 -0.231325 0.000001 0.000000 0.000001 0.000004 -0.000001 -0.000005 -0.000002 0.000004 0.000044 -0.000000 -0.000001 -0.000001 0.000003 0.000001 0.000003 0.000000 -0.000000 0.000019 -0.000001 -0.000002 0.000002 0.000001 0.000001 0.000000 -0.000002 0.000004 0.000146 -0.000000 -0.000001 0.000003 0.000006 -0.000008 -0.000012 0.000000 0.000003 0.000007 0.000000 0.000002 -0.000000 0.000001 0.000000 -0.000003 0.000000 0.000000 -0.000003 0.000001 0.000000 -0.000004 0.000000 0.000000 0.000001 0.000001 0.000001 0.000001 0.000000 0.000000 0.000001 0.000001 0.000001 0.000002 -0.000000 -0.000000 0.000001 -0.000000 -0.000000 0.000001 -0.000000 -0.000000 0.000001 -0.000000 -0.000000 0.000001 -0.000000 -0.000000 0.000001 -0.000000 -0.000000 0.000001 -0.000000 -0.000000 0.000001 0.000000 0.000000 -0.000001 0.000000 -0.000000 -0.000000 
-32.824284 92.847885 -29.577145 5.522605 -1.132003 -0.454349 0.000000 -0.000000 0.000000 -43.942357 -1.337016 13.221353 52.047117 8.941849 1.299128 16.800590 19.448854 2.452785 0.000004 0.000002 -0.000001 0.000000 -0.000001 -0.000000 -2.179458 -10.169937 -14.212495 22.764382 -2.775223 -0.190560 -8.511893 -2.899052 20.341319 -0.000000 -0.000000 -0.000000 -0.000001 -0.000000 -0.000002 1.200218 1.923284 -6.735079 1.667890 4.119296 -1.757983 1.751485 4.109058 -1.720883 -0.125358 0.501702 0.976473 -0.125426 0.501695 0.976466 0.000000 -0.000001 0.000001 -0.125290 0.501655 0.976487 -0.125368 0.501723 0.976470 -0.000000 -0.000000 -0.000000 0.000000 -0.000001 -0.000000 1.475788 -4.286666 -11.679664 17.858445 29.300364 -52.334361 -0.000001 -63.835310 -0.000006 0.424026 -30.787153 -0.397657 -1.540043 3.690178 6.142331 3.946759 7.971410 0.752851 -0.000000 -0.000004 -0.000003 -0.000001 -0.000002 -0.000009 0.000003 -0.000005 -0.000005 -0.000001 -0.000004 -0.000001 0.000001 -0.001928 0.015972 0.000000 0.001917 -0.015988 0.000002 0.000003 0.000003 -0.000003 0.000003 -0.000006 0.000000 -0.000011 -0.000005 -0.000001 0.000001 0.000001 -0.018086 4.054245 0.511054 -0.018086 -4.054244 -0.511061 0.000001 -0.000003 0.000001 0.000000 -0.000002 -0.000000 0.000000 -0.000002 -0.000000 0.000000 -0.000002 -0.000001 -0.000001 -0.000001 0.000000 -0.000001 -0.000002 0.000001 -0.000001 -0.000001 0.000000 -0.000000 -0.000001 0.000001 0.694858 -2.907715 10.339739 -19.916140 -14.501849 37.786738 0.000001 13.690953 -0.000005 5.062891 -2.860966 16.812050 -1.849253 -3.581788 -6.586134 4.645034 -8.656810 -0.231327 0.000000 0.000001 0.000001 0.000000 0.000000 -0.000005 -0.000003 0.000005 0.000046 0.000000 -0.000000 -0.000002 0.000001 -0.000003 -0.000008 -0.000001 0.000000 0.000014 0.000002 -0.000001 0.000002 0.000002 0.000001 -0.000006 -0.000001 0.000004 0.000147 -0.000000 0.000001 0.000002 0.000003 0.000005 -0.000004 0.000002 0.000003 0.000012 -0.000001 0.000001 0.000002 0.000000 -0.000001 0.000001 0.000001 -0.000001 0.000002 0.000000 -0.000001 0.000002 0.000000 0.000001 0.000000 -0.000000 0.000000 -0.000002 0.000000 0.000001 0.000000 0.000000 -0.000000 0.000000 0.000001 0.000001 -0.000000 0.000001 0.000001 -0.000000 0.000001 0.000001 -0.000000 0.000001 0.000001 -0.000000 0.000001 0.000001 -0.000000 0.000001 0.000001 -0.000000 0.000001 0.000001 -0.000000 0.000000 0.000000 0.000000 0.000000 -0.000000 0.000000 
